<svg xmlns="http://www.w3.org/2000/svg" version="1.1" xmlns:xlink="http://www.w3.org/1999/xlink" xmlns:svgjs="http://svgjs.dev/svgjs" width="1000" height="1000" viewBox="0 0 1000 1000"><rect width="1000" height="1000" fill="#000000"></rect><g transform="matrix(0.7,0,0,0.7,149.57605563665675,404.59136911002116)"><svg viewBox="0 0 396 108" data-background-color="#0c1d36" preserveAspectRatio="xMidYMid meet" height="272" width="1000" xmlns="http://www.w3.org/2000/svg" xmlns:xlink="http://www.w3.org/1999/xlink"><g id="tight-bounds" transform="matrix(1,0,0,1,0.24008861730862918,0.1184228244656822)"><svg viewBox="0 0 395.52 107.76323547696592" height="107.76323547696592" width="395.52"><g><svg viewBox="0 0 395.52 107.76323547696592" height="107.76323547696592" width="395.52"><g><svg viewBox="0 0 395.52 107.76323547696592" height="107.76323547696592" width="395.52"><g id="textblocktransform"><svg viewBox="0 0 395.52 107.76323547696592" height="107.76323547696592" width="395.52" id="textblock"><g><svg viewBox="0 0 395.52 84.28210042861669" height="84.28210042861669" width="395.52"><path d="M394.594 18.077C392.735 9.328 387.435 6.896 387.435 6.896 371.165-2.115 350.86-0.172 332.619 1.122 300.414 1.175 268.339 3.1 236.208 4.132 168.767 4.289 100.749 1.7 33.643 8.086 27.339 10.046-6.54 8.471 1.121 19.197 3.129 23.658 10.456 28.61 10.232 32.704 11.236 33.422 12.631 31.777 13.226 32.809 15.309 35.591 18.711 34.279 21.501 35.924 17.614 40.315 20.403 43.972 23.062 47.804 18.377 48.801 12.371 48.329 9.675 51.636 9.396 54.033 7.89 53.578 6.235 53.473 5.026 53.403 2.59 53.666 2.999 54.418 4.394 56.99-1.594 58.477 2.162 60.997-0.422 63.726 3.948 66.088 3.353 69.045 3.278 69.64 3.687 70.148 4.338 70.288 7.22 71.04 3.018 72.51 3.464 74.102 33.029 84.985 65.104 77.461 95.394 82.466 103.259 78.966 97.346 83.708 100.489 82.973 102.943 82.116 104.728 85.667 107.499 83.655 107.927 83.078 107.276 81.713 108.8 81.976 109.6 82.116 110.307 82.081 110.418 81.276 110.586 80.068 109.117 80.821 108.726 80.191 112.947 77.006 111.906 84.583 115.866 84.268 115.68 83.34 114.528 82.011 116.889 82.186 119.232 80.856 119.306 79.753 121.389 82.745 121.463 83.393 121.835 83.848 122.43 84.163 128.938 80.908 135.409 85.318 142.233 83.848 146.417 82.238 150.433 84.723 154.672 84.11 156.16 83.62 157.666 82.745 159.098 84.215 176.632 84.53 195.319 83.218 211.943 84.268 256.364 82.308 303.835 85.073 350.674 82.483 361.719 81.486 373.192 80.068 383.958 78.931 383.958 78.931 392.679 75.817 392.679 61.819S394.538 49.571 394.817 38.426C395.096 27.28 396.398 26.825 394.538 18.077Z" opacity="1" fill="#ffffff" data-fill-palette-color="tertiary"></path><g transform="matrix(1,0,0,1,55.76832,26.068561146666667)"><svg width="283.98335999999995" viewBox="1.75 -36.75 328.17999267578125 37.150001525878906" height="32.14497813528335" data-palette-color="#0c1d36"><path d="M1.75 0L13.7 0Q15.75 0 17.73-0.58 19.7-1.15 21.25-2.3L21.25-2.3Q22.7-3.4 23.63-5.08 24.55-6.75 24.55-9L24.55-9Q24.55-10.8 23.95-12.25 23.35-13.7 22.3-14.8L22.3-14.8Q21.25-15.9 19.88-16.6 18.5-17.3 17.05-17.6L17.05-17.6Q20.2-18.45 21.73-20.8 23.25-23.15 23.25-26.25L23.25-26.25Q23.25-28.55 22.5-30.23 21.75-31.9 20.35-32.95L20.35-32.95Q19-34 17.05-34.5 15.1-35 12.8-35L12.8-35 1.75-35 1.75-33.05 4.8-33.05 4.8-1.95 1.75-1.95 1.75 0ZM6.85-1.95L6.85-16.6 12.65-16.6Q14.55-16.6 16.32-16.15 18.1-15.7 19.5-14.8L19.5-14.8Q20.85-13.95 21.68-12.53 22.5-11.1 22.5-9.15L22.5-9.15Q22.5-7.35 21.78-6 21.05-4.65 19.85-3.8L19.85-3.8Q18.6-2.85 16.98-2.4 15.35-1.95 13.5-1.95L13.5-1.95 6.85-1.95ZM6.85-18.55L6.85-33.05 13.25-33.05Q15-33.05 16.43-32.65 17.85-32.25 18.9-31.45L18.9-31.45Q20-30.65 20.6-29.3 21.2-27.95 21.2-26.1L21.2-26.1Q21.2-22.7 19.13-20.63 17.05-18.55 13.45-18.55L13.45-18.55 6.85-18.55ZM28.05 0L53.1 0 53.1-7.7 51.15-7.7 51.15-1.95 33.7-1.95 33.7-16.65 50.45-16.65 50.45-18.65 33.7-18.65 33.7-33.05 50.45-33.05 50.45-27.3 52.4-27.3 52.4-35 28.05-35 28.05-33.05 31.65-33.05 31.65-1.95 28.05-1.95 28.05 0ZM74.5-2.25L74.5-2.25Q75.89-3.5 76.72-5.3 77.55-7.1 77.55-9.3L77.55-9.3Q77.5-12.75 76.12-14.65 74.75-16.55 72.69-17.6L72.69-17.6Q70.55-18.65 68.12-19.25 65.69-19.85 63.74-20.75L63.74-20.75Q62.05-21.5 60.95-22.73 59.84-23.95 59.84-26.2L59.84-26.2Q59.84-27.55 60.27-28.8 60.7-30.05 61.55-31.05L61.55-31.05Q62.39-32.05 63.72-32.65 65.05-33.25 66.84-33.25L66.84-33.25Q68.89-33.25 70.42-32.77 71.94-32.3 72.89-31.7L72.89-31.7 72.89-27.3 74.89-27.3 74.89-32.7Q73.94-33.45 72.87-33.98 71.8-34.5 70.8-34.75L70.8-34.75Q69.75-35 68.75-35.1 67.75-35.2 66.89-35.2L66.89-35.2Q64.39-35.2 62.64-34.38 60.89-33.55 59.8-32.2L59.8-32.2Q58.7-30.85 58.22-29.18 57.74-27.5 57.8-25.85L57.8-25.85Q57.89-23.4 58.89-21.95 59.89-20.5 61.45-19.6L61.45-19.6Q62.95-18.75 64.77-18.2 66.59-17.65 68.34-17.1L68.34-17.1Q69.84-16.55 71.17-15.98 72.5-15.4 73.5-14.4L73.5-14.4Q74.44-13.55 74.97-12.25 75.5-10.95 75.5-9.2L75.5-9.2Q75.5-7.45 74.75-6.03 74-4.6 72.84-3.6L72.84-3.6Q71.59-2.65 70.05-2.1 68.5-1.55 66.8-1.55L66.8-1.55Q63.99-1.55 61.99-2.45 59.99-3.35 58.64-4.6L58.64-4.6 58.64-9.1 56.64-9.1 56.64-3.75Q57.2-3.1 58.14-2.38 59.09-1.65 60.45-1.05L60.45-1.05Q61.7-0.4 63.37 0 65.05 0.4 67 0.4L67 0.4Q69.14 0.4 71.09-0.28 73.05-0.95 74.5-2.25ZM89.19 0L99.24 0 99.24-1.95 95.34-1.95 95.34-33.05 106.19-33.05 106.19-27.3 108.14-27.3 108.14-35 80.49-35 80.49-27.3 82.44-27.3 82.44-33.05 93.29-33.05 93.29-1.95 89.19-1.95 89.19 0ZM111.64 0L120.44 0Q125.74 0 129.42-1.63 133.09-3.25 135.39-5.8L135.39-5.8Q137.69-8.35 138.72-11.45 139.74-14.55 139.74-17.5L139.74-17.5Q139.74-21.5 138.34-24.75 136.94-28 134.54-30.3L134.54-30.3Q132.14-32.55 128.94-33.77 125.74-35 122.14-35L122.14-35 111.64-35 111.64-33.05 114.79-33.05 114.79-2 111.64-2 111.64 0ZM116.84-2L116.84-33.05 122.14-33.05Q125.34-33.05 128.17-31.95 130.99-30.85 133.14-28.85L133.14-28.85Q135.29-26.8 136.52-23.93 137.74-21.05 137.74-17.5L137.74-17.5Q137.74-14.55 136.72-11.78 135.69-9 133.64-6.85L133.64-6.85Q131.59-4.65 128.47-3.33 125.34-2 121.19-2L121.19-2 116.84-2ZM143.24 0L168.29 0 168.29-7.7 166.34-7.7 166.34-1.95 148.89-1.95 148.89-16.65 165.64-16.65 165.64-18.65 148.89-18.65 148.89-33.05 165.64-33.05 165.64-27.3 167.59-27.3 167.59-35 143.24-35 143.24-33.05 146.84-33.05 146.84-1.95 143.24-1.95 143.24 0ZM171.79 0L181.44 0 181.44-1.95 177.74-1.95Q179.29-5.55 180.54-8.5 181.79-11.45 183.29-15.05L183.29-15.05 197.39-15.05Q198.79-11.75 200.16-8.5 201.54-5.25 202.94-1.95L202.94-1.95 199.29-1.95 199.29 0 208.89 0 208.89-1.95 205.04-1.95Q201.34-10.7 197.66-19.28 193.99-27.85 190.34-36.6L190.34-36.6Q186.69-27.85 182.99-19.28 179.29-10.7 175.64-1.95L175.64-1.95 171.79-1.95 171.79 0ZM189.84-30.6L189.84-30.6Q189.99-31 190.11-31.3 190.24-31.6 190.34-32.05L190.34-32.05 190.79-30.6 196.54-17 184.14-17Q185.54-20.35 187.01-23.78 188.49-27.2 189.84-30.6ZM212.38 0L237.28 0 237.28-7.7 235.33-7.7 235.33-1.95 217.88-1.95 217.88-33.05 222.03-33.05 222.03-35 212.38-35 212.38-33.05 215.83-33.05 215.83-1.95 212.38-1.95 212.38 0ZM258.68-2.25L258.68-2.25Q260.08-3.5 260.91-5.3 261.73-7.1 261.73-9.3L261.73-9.3Q261.68-12.75 260.31-14.65 258.93-16.55 256.88-17.6L256.88-17.6Q254.73-18.65 252.31-19.25 249.88-19.85 247.93-20.75L247.93-20.75Q246.23-21.5 245.13-22.73 244.03-23.95 244.03-26.2L244.03-26.2Q244.03-27.55 244.46-28.8 244.88-30.05 245.73-31.05L245.73-31.05Q246.58-32.05 247.91-32.65 249.23-33.25 251.03-33.25L251.03-33.25Q253.08-33.25 254.61-32.77 256.13-32.3 257.08-31.7L257.08-31.7 257.08-27.3 259.08-27.3 259.08-32.7Q258.13-33.45 257.06-33.98 255.98-34.5 254.98-34.75L254.98-34.75Q253.93-35 252.93-35.1 251.93-35.2 251.08-35.2L251.08-35.2Q248.58-35.2 246.83-34.38 245.08-33.55 243.98-32.2L243.98-32.2Q242.88-30.85 242.41-29.18 241.93-27.5 241.98-25.85L241.98-25.85Q242.08-23.4 243.08-21.95 244.08-20.5 245.63-19.6L245.63-19.6Q247.13-18.75 248.96-18.2 250.78-17.65 252.53-17.1L252.53-17.1Q254.03-16.55 255.36-15.98 256.68-15.4 257.68-14.4L257.68-14.4Q258.63-13.55 259.16-12.25 259.68-10.95 259.68-9.2L259.68-9.2Q259.68-7.45 258.93-6.03 258.18-4.6 257.03-3.6L257.03-3.6Q255.78-2.65 254.23-2.1 252.68-1.55 250.98-1.55L250.98-1.55Q248.18-1.55 246.18-2.45 244.18-3.35 242.83-4.6L242.83-4.6 242.83-9.1 240.83-9.1 240.83-3.75Q241.38-3.1 242.33-2.38 243.28-1.65 244.63-1.05L244.63-1.05Q245.88-0.4 247.56 0 249.23 0.4 251.18 0.4L251.18 0.4Q253.33 0.4 255.28-0.28 257.23-0.95 258.68-2.25ZM264.68 0L292.63 0 292.63-10.05 290.68-10.05 290.68-2 267.28-2 291.18-33.05 291.18-35 267.63-35 267.63-36.75 265.53-36.75 265.53-33.05 288.58-33.05 264.68-2 264.68 0ZM308.13 0L318.13 0 318.13-1.95 314.23-1.95 314.23-13.25Q317.18-18.2 320.13-23.13 323.07-28.05 325.98-33.05L325.98-33.05 329.93-33.05 329.93-35 319.88-35 319.88-33.05 323.48-33.05 313.63-16.45 313.07-15.05 313.02-15.05 312.43-16.45Q309.98-20.6 307.5-24.73 305.02-28.85 302.48-33.05L302.48-33.05 306.18-33.05 306.18-35 296.13-35 296.13-33.05 299.98-33.05Q302.98-28.1 305.9-23.15 308.82-18.2 311.82-13.25L311.82-13.25 311.82-1.95 308.13-1.95 308.13 0Z" opacity="1" transform="matrix(1,0,0,1,0,0)" fill="#000000" class="undefined-text-0" data-fill-palette-color="quaternary" id="text-0"></path></svg></g></svg></g><g transform="matrix(1,0,0,1,116.03786929558228,91.87075828688184)"><svg viewBox="0 0 163.44426140883542 15.892477190084087" height="15.892477190084087" width="163.44426140883542"><g transform="matrix(1,0,0,1,0,0)"><svg width="163.44426140883542" viewBox="3.700000047683716 -36.849998474121094 385.1199951171875 37.44999694824219" height="15.892477190084087" data-palette-color="#f9cc0b"><path d="M18.6-34.4Q36.65-34.4 36.65-17.2L36.65-17.2Q36.65 0 18.6 0L18.6 0 3.7 0 3.7-34.4 18.6-34.4ZM14.75-26.15L14.75-8.25 18.4-8.25Q25.35-8.25 25.35-15.7L25.35-15.7 25.35-18.7Q25.35-26.15 18.4-26.15L18.4-26.15 14.75-26.15ZM55.55-27Q62.8-27 66.62-23.6 70.45-20.2 70.45-13.2L70.45-13.2 70.45-11.5 50.65-11.5Q50.65-8.65 51.92-7.2 53.2-5.75 55.95-5.75L55.95-5.75Q58.45-5.75 59.62-6.8 60.8-7.85 60.8-9.6L60.8-9.6 70.45-9.6Q70.45-4.8 66.8-2.1 63.15 0.6 56.15 0.6L56.15 0.6Q48.8 0.6 44.75-2.83 40.7-6.25 40.7-13.2L40.7-13.2Q40.7-20 44.65-23.5 48.6-27 55.55-27L55.55-27ZM55.95-20.65Q51.25-20.65 50.7-16.2L50.7-16.2 60.4-16.2Q60.4-18.25 59.22-19.45 58.05-20.65 55.95-20.65L55.95-20.65ZM88.3-27Q94.34-27 98.15-24.98 101.95-22.95 101.95-18.4L101.95-18.4 101.95-8.1Q101.95-7.25 102.34-6.7 102.75-6.15 103.55-6.15L103.55-6.15 105.34-6.15 105.34-0.4Q105.2-0.3 104.57-0.08 103.95 0.15 102.8 0.38 101.65 0.6 100.15 0.6L100.15 0.6Q97.25 0.6 95.37-0.28 93.5-1.15 92.8-2.7L92.8-2.7Q90.9-1.2 88.55-0.3 86.2 0.6 83.05 0.6L83.05 0.6Q73.75 0.6 73.75-6.8L73.75-6.8Q73.75-10.65 75.82-12.68 77.9-14.7 81.8-15.45 85.7-16.2 92-16.2L92-16.2 92-17.5Q92-19.05 90.92-19.85 89.84-20.65 88.15-20.65L88.15-20.65Q86.59-20.65 85.47-20.1 84.34-19.55 84.34-18.35L84.34-18.35 84.34-18.15 74.55-18.15Q74.5-18.4 74.5-18.85L74.5-18.85Q74.5-22.6 78.07-24.8 81.65-27 88.3-27L88.3-27ZM92-11.5Q87.75-11.5 85.72-10.58 83.7-9.65 83.7-8.1L83.7-8.1Q83.7-5.6 87.09-5.6L87.09-5.6Q89.05-5.6 90.52-6.65 92-7.7 92-9.25L92-9.25 92-11.5ZM118.89 0L108.94 0 108.94-36.25 118.89-36.25 118.89 0ZM137.79-27Q143.09-27 146.77-24.93 150.44-22.85 150.44-18.5L150.44-18.5 141.19-18.5Q141.19-19.95 139.89-20.55L139.89-20.55Q138.99-21.05 137.64-21.05L137.64-21.05Q134.04-21.05 134.04-19.35L134.04-19.35Q134.04-18.4 135.29-18 136.54-17.6 139.39-17.15L139.39-17.15Q142.89-16.65 145.24-15.98 147.59-15.3 149.34-13.58 151.09-11.85 151.09-8.75L151.09-8.75Q151.09-3.7 147.31-1.55 143.54 0.6 137.44 0.6L137.44 0.6Q133.94 0.6 130.84-0.38 127.74-1.35 125.79-3.4 123.84-5.45 123.84-8.6L123.84-8.6 133.09-8.6 133.09-8.4Q133.14-6.7 134.52-6.03 135.89-5.35 137.44-5.35L137.44-5.35Q141.59-5.35 141.59-7.3L141.59-7.3Q141.59-8.3 140.29-8.75 138.99-9.2 136.04-9.7L136.04-9.7Q132.49-10.3 130.22-11 127.94-11.7 126.24-13.38 124.54-15.05 124.54-18.05L124.54-18.05Q124.54-22.9 128.22-24.95 131.89-27 137.79-27L137.79-27ZM190.29-35Q195.39-35 199.14-33.75 202.89-32.5 204.89-30.35 206.89-28.2 206.89-25.6L206.89-25.6 206.89-24.35 198.04-24.35Q198.04-25.9 196.21-26.93 194.39-27.95 190.94-27.95L190.94-27.95Q187.74-27.95 186.06-26.73 184.39-25.5 184.39-23.75L184.39-23.75Q184.39-22.2 185.41-21.4 186.44-20.6 187.94-20.6L187.94-20.6 193.14-20.6 193.14-14.45 186.84-14.45Q185.29-14.45 184.31-13.53 183.34-12.6 183.34-10.85L183.34-10.85Q183.34-8.8 185.06-7.63 186.79-6.45 190.54-6.45L190.54-6.45Q198.04-6.45 198.04-10.9L198.04-10.9 198.04-20.6 213.84-20.6 213.84-14.45 206.99-14.45 206.99-11.1Q206.99-5.5 203.01-2.45 199.04 0.6 190.59 0.6L190.59 0.6Q181.89 0.6 177.54-2.2 173.19-5 173.19-9.6L173.19-9.6Q173.19-12.6 174.76-14.78 176.34-16.95 179.19-17.85L179.19-17.85 179.19-18.05Q177.04-18.85 175.61-20.8 174.19-22.75 174.19-25.15L174.19-25.15Q174.19-27.85 176.01-30.1 177.84-32.35 181.49-33.68 185.14-35 190.29-35L190.29-35ZM247.18-27Q254.13-27 258.11-23.48 262.08-19.95 262.08-13.2L262.08-13.2Q262.08-6.45 258.11-2.93 254.13 0.6 247.18 0.6L247.18 0.6Q240.23 0.6 236.28-2.9 232.33-6.4 232.33-13.2L232.33-13.2Q232.33-20 236.28-23.5 240.23-27 247.18-27L247.18-27ZM247.18-20.25Q242.28-20.25 242.28-14.6L242.28-14.6 242.28-11.75Q242.28-6.15 247.18-6.15L247.18-6.15Q252.13-6.15 252.13-11.75L252.13-11.75 252.13-14.6Q252.13-20.25 247.18-20.25L247.18-20.25ZM277.63-36.85Q278.73-36.85 280.38-36.58 282.03-36.3 283.03-35.95L283.03-35.95 283.03-30.1 280.73-30.1Q279.13-30.1 278.53-29.5 277.93-28.9 277.93-27.45L277.93-27.45 277.93-26.4 283.03-26.4 283.03-19.65 277.93-19.65 277.93 0 267.98 0 267.98-19.65 264.28-19.65 264.28-26.4 267.98-26.4 267.98-27.5Q267.98-32.6 270.48-34.73 272.98-36.85 277.63-36.85L277.63-36.85ZM298.33-36.85Q299.43-36.85 301.08-36.58 302.73-36.3 303.73-35.95L303.73-35.95 303.73-30.1 301.43-30.1Q299.83-30.1 299.23-29.5 298.63-28.9 298.63-27.45L298.63-27.45 298.63-26.4 303.73-26.4 303.73-19.65 298.63-19.65 298.63 0 288.68 0 288.68-19.65 284.98-19.65 284.98-26.4 288.68-26.4 288.68-27.5Q288.68-32.6 291.18-34.73 293.68-36.85 298.33-36.85L298.33-36.85ZM319.82-27Q327.07-27 330.9-23.6 334.72-20.2 334.72-13.2L334.72-13.2 334.72-11.5 314.92-11.5Q314.92-8.65 316.2-7.2 317.47-5.75 320.22-5.75L320.22-5.75Q322.72-5.75 323.9-6.8 325.07-7.85 325.07-9.6L325.07-9.6 334.72-9.6Q334.72-4.8 331.07-2.1 327.42 0.6 320.42 0.6L320.42 0.6Q313.07 0.6 309.02-2.83 304.97-6.25 304.97-13.2L304.97-13.2Q304.97-20 308.92-23.5 312.87-27 319.82-27L319.82-27ZM320.22-20.65Q315.52-20.65 314.97-16.2L314.97-16.2 324.67-16.2Q324.67-18.25 323.5-19.45 322.32-20.65 320.22-20.65L320.22-20.65ZM355.57-27.05Q356.72-27.05 357.62-26.78 358.52-26.5 358.52-26.45L358.52-26.45 358.52-18.1 355.32-18.1Q352.22-18.1 350.85-16.5 349.47-14.9 349.47-11.75L349.47-11.75 349.47 0 339.52 0 339.52-26.4 347.67-26.4 348.32-22.4Q349.22-24.7 351.17-25.88 353.12-27.05 355.57-27.05L355.57-27.05ZM375.52-27Q380.82-27 384.49-24.93 388.17-22.85 388.17-18.5L388.17-18.5 378.92-18.5Q378.92-19.95 377.62-20.55L377.62-20.55Q376.72-21.05 375.37-21.05L375.37-21.05Q371.77-21.05 371.77-19.35L371.77-19.35Q371.77-18.4 373.02-18 374.27-17.6 377.12-17.15L377.12-17.15Q380.62-16.65 382.97-15.98 385.32-15.3 387.07-13.58 388.82-11.85 388.82-8.75L388.82-8.75Q388.82-3.7 385.04-1.55 381.27 0.6 375.17 0.6L375.17 0.6Q371.67 0.6 368.57-0.38 365.47-1.35 363.52-3.4 361.57-5.45 361.57-8.6L361.57-8.6 370.82-8.6 370.82-8.4Q370.87-6.7 372.24-6.03 373.62-5.35 375.17-5.35L375.17-5.35Q379.32-5.35 379.32-7.3L379.32-7.3Q379.32-8.3 378.02-8.75 376.72-9.2 373.77-9.7L373.77-9.7Q370.22-10.3 367.94-11 365.67-11.7 363.97-13.38 362.27-15.05 362.27-18.05L362.27-18.05Q362.27-22.9 365.94-24.95 369.62-27 375.52-27L375.52-27Z" opacity="1" transform="matrix(1,0,0,1,0,0)" fill="#ffffff" class="undefined-text-1" data-fill-palette-color="secondary" id="text-1"></path></svg></g></svg></g></svg></g></svg></g><g></g></svg></g><defs></defs></svg><rect width="395.52" height="107.76323547696592" fill="none" stroke="none" visibility="hidden"></rect></g></svg></g></svg>